<svg xmlns="http://www.w3.org/2000/svg" width="500" height="500" viewBox="0 0 256 256" fill="none">
<rect width="256" height="256" rx="40" fill="#00141D"/>
<path fill-rule="evenodd" clip-rule="evenodd" d="M110.628 31.9768C119.791 22.5535 134.883 22.5534 144.046 31.9768L167.192 55.7806C171.452 60.1612 173.836 66.041 173.836 72.1635V81.3079H182.942C189.039 81.3079 194.894 83.7024 199.257 87.9796L222.962 111.222C232.346 120.423 232.346 135.578 222.962 144.779L199.257 168.021C194.894 172.299 189.039 174.693 182.942 174.693H173.836V183.837C173.836 189.959 171.452 195.839 167.192 200.219L144.046 224.023C134.883 233.447 119.791 233.447 110.628 224.023L87.4823 200.219C83.2227 195.839 80.8382 189.959 80.8382 183.837V174.693H71.7316C65.6345 174.693 59.7792 172.299 55.4167 168.021L31.7116 144.779C22.3273 135.578 22.3272 120.423 31.7116 111.222L55.4167 87.9796C59.7792 83.7024 65.6345 81.3079 71.7316 81.3079H80.8382V72.1635C80.8382 66.041 83.2227 60.1612 87.4823 55.7806L110.628 31.9768ZM93.3691 183.837V174.693H104.272C110.369 174.693 116.224 172.299 120.587 168.021L127.337 161.403L134.087 168.021C138.449 172.299 144.305 174.693 150.402 174.693H161.305V183.837C161.305 186.674 160.2 189.399 158.226 191.429L135.081 215.232C130.834 219.599 123.84 219.599 119.594 215.232L96.4481 191.429C94.4742 189.399 93.3691 186.674 93.3691 183.837ZM111.832 159.018L118.368 152.61L111.535 145.91C111.227 145.625 110.924 145.33 110.628 145.026L110.529 144.924L110.382 144.779C110.066 144.47 109.761 144.154 109.467 143.832L102.83 137.006L96.4481 143.569C94.4742 145.599 93.3691 148.324 93.3691 151.161V162.11H104.272C107.097 162.11 109.811 161 111.832 159.018ZM136.305 103.391L143.103 110.056C143.424 110.351 143.738 110.657 144.046 110.974L144.191 111.123L144.292 111.222C144.595 111.519 144.889 111.823 145.172 112.132L151.845 118.994L158.226 112.431C160.2 110.401 161.305 107.676 161.305 104.839V93.891H150.402C147.576 93.891 144.863 95.0007 142.841 96.9828L136.305 103.391ZM144.292 144.779L144.168 144.901L144.046 145.026C143.744 145.336 143.436 145.637 143.121 145.927L136.305 152.61L142.841 159.018C144.863 161 147.576 162.11 150.402 162.11H161.305V151.161C161.305 148.324 160.2 145.599 158.226 143.569L151.845 137.006L145.189 143.85C144.9 144.166 144.601 144.476 144.292 144.779ZM120.587 87.9796L127.337 94.5978L134.087 87.9796C138.449 83.7024 144.304 81.3079 150.402 81.3079H161.305V72.1635C161.305 69.3262 160.2 66.6015 158.226 64.5714L135.081 40.7676C130.834 36.4007 123.84 36.4007 119.594 40.7676L96.4481 64.5714C94.4742 66.6015 93.3691 69.3262 93.3691 72.1635V81.3079H104.272C110.369 81.3079 116.224 83.7024 120.587 87.9796ZM104.272 93.891H93.3691V104.839C93.3691 107.676 94.4742 110.401 96.4481 112.431L102.83 118.994L109.483 112.152C109.773 111.835 110.072 111.525 110.382 111.222L110.507 111.099L110.628 110.974C110.93 110.664 111.239 110.363 111.554 110.073L118.368 103.391L111.832 96.9828C109.811 95.0007 107.097 93.891 104.272 93.891ZM80.8382 104.839V93.891H71.7316C68.9061 93.891 66.1927 95.0007 64.171 96.9828L40.4659 120.225C36.1171 124.489 36.1171 131.512 40.4659 135.776L64.171 159.018C66.1927 161 68.9061 162.11 71.7316 162.11H80.8382V151.161C80.8382 145.038 83.2227 139.159 87.4823 134.778L94.073 128L87.4823 121.222C83.2227 116.841 80.8382 110.962 80.8382 104.839ZM173.836 162.11H182.942C185.767 162.11 188.481 161 190.502 159.018L214.208 135.776C218.556 131.512 218.556 124.489 214.208 120.225L190.502 96.9828C188.481 95.0007 185.767 93.891 182.942 93.891H173.836V104.839C173.836 110.962 171.452 116.841 167.192 121.222L160.602 128L167.192 134.778C171.452 139.159 173.836 145.038 173.836 151.161V162.11ZM115.295 128C115.295 134.679 120.686 140.093 127.337 140.093C133.988 140.093 139.38 134.679 139.38 128C139.38 121.321 133.988 115.907 127.337 115.907C120.686 115.907 115.295 121.321 115.295 128Z" fill="white"/>
</svg>